HIERARCHY
ROOT Hips
{
  OFFSET 196.326 95.9168 97.7182
  CHANNELS 6 Xposition Yposition Zposition Zrotation Xrotation Yrotation
  JOINT LeftUpLeg
  {
    OFFSET 8.64259 1.95398 -2.38835
    CHANNELS 3 Zrotation Xrotation Yrotation
    JOINT LeftLeg
    {
      OFFSET 43.7702 0 0
      CHANNELS 3 Zrotation Xrotation Yrotation
      JOINT LeftFoot
      {
        OFFSET 40.6238 0 0
        CHANNELS 3 Zrotation Xrotation Yrotation
        JOINT LeftToeBase
        {
          OFFSET 12.7242 0 0
          CHANNELS 3 Zrotation Xrotation Yrotation
          End Site
          {
            OFFSET 0 0 0
          }
        }
      }
    }
  }
  JOINT RightUpLeg
  {
    OFFSET -8.2249 1.95398 -2.59336
    CHANNELS 3 Zrotation Xrotation Yrotation
    JOINT RightLeg
    {
      OFFSET 43.5653 0 0
      CHANNELS 3 Zrotation Xrotation Yrotation
      JOINT RightFoot
      {
        OFFSET 40.6238 0 0
        CHANNELS 3 Zrotation Xrotation Yrotation
        JOINT RightToeBase
        {
          OFFSET 12.7242 0 0
          CHANNELS 3 Zrotation Xrotation Yrotation
          End Site
          {
            OFFSET 0 0 0
          }
        }
      }
    }
  }
  JOINT Spine
  {
    OFFSET 0.165834 0.87714 6.61349
    CHANNELS 3 Zrotation Xrotation Yrotation
    JOINT Spine1
    {
      OFFSET 7.38963 1.71661e-005 0
      CHANNELS 3 Zrotation Xrotation Yrotation
      JOINT Spine2
      {
        OFFSET 11.9445 1.14441e-005 0
        CHANNELS 3 Zrotation Xrotation Yrotation
        JOINT Spine3
        {
          OFFSET 14.7254 4.19617e-005 0
          CHANNELS 3 Zrotation Xrotation Yrotation
          JOINT Spine4
          {
            OFFSET 10.9679 0 0
            CHANNELS 3 Zrotation Xrotation Yrotation
            JOINT RightShoulder
            {
              OFFSET 2.46616 -1.6653 3.69651
              CHANNELS 3 Zrotation Xrotation Yrotation
              JOINT RightArm
              {
                OFFSET 13.0012 0 0
                CHANNELS 3 Zrotation Xrotation Yrotation
                JOINT RightForeArm
                {
                  OFFSET 28.7848 1.52588e-005 0
                  CHANNELS 3 Zrotation Xrotation Yrotation
                  JOINT RightHand
                  {
                    OFFSET 26.5688 1.52588e-005 0
                    CHANNELS 3 Zrotation Xrotation Yrotation
                    End Site
                    {
                      OFFSET 0 0 0
                    }
                  }
                }
              }
            }
            JOINT LeftShoulder
            {
              OFFSET 2.38034 -1.29275 -3.75231
              CHANNELS 3 Zrotation Xrotation Yrotation
              JOINT LeftArm
              {
                OFFSET 16.3182 6.10351e-005 0
                CHANNELS 3 Zrotation Xrotation Yrotation
                JOINT LeftForeArm
                {
                  OFFSET 27.0901 0 0
                  CHANNELS 3 Zrotation Xrotation Yrotation
                  JOINT LeftHand
                  {
                    OFFSET 24.5451 1.52588e-005 0
                    CHANNELS 3 Zrotation Xrotation Yrotation
                    End Site
                    {
                      OFFSET 0 0 0
                    }
                  }
                }
              }
            }
            JOINT Neck
            {
              OFFSET 5.0226 -0.0266342 0
              CHANNELS 3 Zrotation Xrotation Yrotation
              JOINT Head
              {
                OFFSET 6.69363 2.86102e-005 0
                CHANNELS 3 Zrotation Xrotation Yrotation
                End Site
                {
                  OFFSET 0 0 0
                }
              }
            }
          }
        }
      }
    }
  }
}
MOTION
Frames:	9
Frame Time:	0.0416667
-56.2036 46.528 7.99114 -145.312 -80.2818 -133.281 111.962 82.3252 168.096 -117.197 -3.77804 4.62428 53.4934 18.7195 34.2146 62.9632 30.9289 -13.4529 106.188 60.71 170.35 -112.485 31.6459 -10.4878 74.7586 -18.7546 -10.3061 52.3404 2.87954 9.78571 1.32131 11.9844 -90.6747 2.91506 2.37357 -1.29327 -8.75446 2.31435 -1.39651 -31.3058 2.65244 -0.519728 -11.2931 2.65244 -0.519723 78.4214 -36.5263 -124.776 -8.4725 -1.50117 -34.6864 22.1867 13.5998 -51.455 -15.1278 -0.266605 -3.54523 -108.508 -34.1283 43.1554 18.4392 5.69593 -18.4001 -24.2704 -21.6768 -56.3527 17.0258 0.0232751 -3.70398 0.042251 2.12756 2.14584 -4.51663 1.83519 1.43829 
-55.9732 47.7371 7.77848 -164.777 -80.3751 -155.193 145.719 82.7645 131.142 -114.591 -5.20863 4.70991 53.2675 18.8874 33.3646 64.5808 30.1454 -18.6458 109.002 62.8566 163.699 -111.484 32.5787 -10.4881 71.7904 -17.3838 -10.3229 55.4358 3.97914 13.4066 0.863639 12.1516 -90.5497 2.57563 1.50997 -1.05092 -9.09493 1.46227 -1.11636 -31.6359 1.75598 -0.548441 -11.6233 1.756 -0.54844 78.5587 -36.5389 -124.538 -7.52963 -1.63695 -34.4446 21.6053 13.5789 -52.6827 -15.3354 -0.457389 -2.16708 -107.964 -34.1602 44.0372 17.5444 5.23388 -19.1719 -23.0649 -20.8564 -56.2129 15.5232 0.06825 -3.38624 0.0683308 2.18658 1.97002 -5.04615 1.91808 1.90416 
-55.8513 49.2054 8.0226 -177.621 -80.3573 -170.076 165.748 80.8336 108.907 -112.206 -6.15335 4.66464 53.2697 18.8159 32.4817 67.5575 31.6353 -20.6112 115.419 64.5351 154.855 -111.188 31.0044 -9.93164 74.816 -17.288 -9.6505 53.4158 3.51761 12.8067 0.48719 12.1614 -90.4105 2.55299 0.812618 -0.789166 -9.11796 0.777105 -0.824175 -31.6542 1.01222 -0.508456 -11.6416 1.01222 -0.508455 77.8409 -37.0562 -125.451 -7.82937 -1.76465 -33.3673 22.4643 13.1245 -53.4007 -14.4252 -0.411612 -2.17458 -107.648 -34.462 44.7309 17.2061 5.19092 -18.9767 -24.1451 -21.2636 -57.1795 17.2195 0.130845 -3.08683 -0.0448402 2.31889 2.14781 -5.42662 2.01692 1.63555 
-55.78 51.1848 8.15798 175.203 -80.5716 -179.012 177.95 78.5679 95.2472 -109.281 -6.30003 4.6652 53.8341 18.8911 31.8886 65.0884 29.9807 -20.0413 121.929 65.8159 146.975 -109.391 30.492 -9.4907 75.0576 -16.7218 -9.28714 53.7122 3.55602 12.7175 0.252559 12.0576 -90.2826 2.75925 0.393567 -0.547021 -8.91176 0.369111 -0.563824 -31.4468 0.539769 -0.403451 -11.4342 0.539774 -0.403463 77.3967 -37.6621 -125.844 -7.9524 -2.21358 -32.2262 22.8245 12.7485 -54.7878 -16.0395 -0.472893 -2.30082 -107.85 -34.6006 44.4974 16.874 5.3321 -18.1909 -24.1453 -21.2612 -57.5627 15.0374 -0.0523693 -4.12367 -0.955991 2.32686 2.08172 -5.17154 2.06034 1.89834 
-55.8078 53.4695 8.42845 172.694 -81.3969 177.012 -176.41 76.1304 89.4419 -105.948 -6.13048 4.6154 53.7371 17.8789 31.2909 67.4191 30.924 -22.0353 129.218 66.3991 139.163 -107.379 28.7772 -8.917 76.6016 -16.4196 -8.79019 52.0656 3.16078 12.0075 0.134335 11.9194 -90.1562 3.03521 0.206699 -0.303473 -8.63575 0.193138 -0.312284 -31.1709 0.288345 -0.22733 -11.1582 0.288348 -0.227317 77.676 -38.0924 -125.143 -7.83799 -2.49198 -32.2197 24.3191 13.3561 -55.7624 -15.4919 -0.40742 -2.65657 -107.599 -34.624 44.9098 16.5762 5.3312 -18.33 -24.0372 -20.8838 -57.9649 14.8835 -0.0650882 -4.20211 -0.667317 2.26055 1.90948 -5.95533 1.99846 1.89689 
-55.9559 55.8911 9.14788 175.71 -83.3477 178.726 -172.535 74.2965 86.0281 -102.808 -5.90783 4.49975 54.7315 17.9536 31.0851 67.5467 30.879 -22.3698 135.235 66.9677 133.806 -104.541 29.5346 -8.44941 77.5253 -16.2594 -8.4233 52.0861 3.45729 14.0102 0.0867338 11.6155 -89.9922 3.6427 0.176513 0.0153348 -8.02822 0.177018 0.00755301 -30.5635 0.163734 0.0676643 -10.5508 0.163743 0.067668 77.6081 -37.9681 -125.324 -6.40755 -2.65538 -31.1707 24.237 13.0031 -56.9101 -15.3493 -0.435289 -2.39491 -107.349 -34.6731 45.3371 15.2421 5.16566 -17.7438 -24.6024 -20.9205 -59.1772 16.407 0.0673152 -3.41196 -0.927524 2.3751 1.92938 -6.47468 2.10576 1.77855 
-56.2203 58.6572 9.957 -163.083 -85.7831 -161.054 -169.562 72.6311 84.6306 -99.3532 -5.60021 4.336 56.5637 18.2038 30.0394 64.5948 29.4337 -20.4666 141.982 67.4496 128.956 -101.334 28.43 -7.8076 77.4201 -15.653 -8.11975 51.4983 3.39765 14.3721 0.202449 11.2097 -89.8401 4.45334 0.469647 0.309508 -7.21755 0.482814 0.288528 -29.7529 0.354913 0.436346 -9.74021 0.354918 0.436345 77.5338 -38.6566 -125.063 -5.05695 -2.77399 -30.2639 23.2889 12.261 -58.5914 -14.9716 -0.44128 -2.17708 -107.295 -34.9923 45.6215 14.0026 5.13801 -17.2907 -25.2253 -20.8636 -60.4589 16.8356 0.0607903 -3.47251 -1.12719 2.50418 1.82265 -7.38051 2.23569 1.87962 
-56.6793 61.5354 10.9902 -101.657 -85.2619 -100.532 -165.443 71.2863 83.718 -95.7461 -5.59157 4.10018 58.1502 18.0137 28.8429 61.772 28.0073 -18.4782 149.849 67.8684 124.568 -97.7503 27.6054 -7.27196 78.6501 -15.5268 -6.7576 49.4697 2.99611 14.2735 0.51173 10.7344 -89.6499 5.4017 1.16803 0.660157 -6.26887 1.19594 0.608102 -28.8055 0.91563 0.980679 -8.79283 0.915631 0.980674 77.7378 -39.1691 -124.452 -2.69611 -2.64493 -29.0335 21.546 10.2491 -60.369 -15.2027 -0.556578 -1.33681 -108.085 -35.3715 44.6105 13.0307 4.89097 -15.5475 -25.0754 -20.0846 -62.0372 17.4881 0.149039 -3.0039 -2.07047 1.96274 1.76757 -7.54276 1.72058 1.84234 
-57.1144 64.4767 12.0613 -80.1763 -83.2909 -78.7609 -164.365 69.5185 85.7749 -92.0536 -4.72816 3.65709 59.3185 17.589 28.1753 62.5241 27.8569 -20.4651 155.249 66.6998 121.407 -93.7574 27.211 -6.60888 77.8599 -14.6884 -6.25068 49.4021 3.09091 15.1529 0.725012 10.3395 -89.6379 6.1897 1.60128 0.660682 -5.48039 1.6288 0.589558 -28.0201 1.32868 1.11144 -8.00742 1.32869 1.11145 77.7574 -39.73 -124.118 -0.670947 -3.19782 -27.3468 19.6134 8.58864 -62.3884 -16.3943 -0.725929 -0.566626 -107.907 -35.6867 45.0845 10.5547 4.46234 -14.7004 -24.7567 -19.2269 -63.5873 18.2879 0.248206 -2.51176 -2.5012 1.93033 2.18126 -8.50799 1.63806 1.43865 
